<svg xmlns="http://www.w3.org/2000/svg"  viewBox="0 0 100 100" width="25px" height="25px"><path d="M38.5,93c-7.513,0-13.709-5.743-14.43-13.07 C16.744,79.209,11,73.013,11,65.5v-40C11,17.505,17.505,11,25.5,11h40c7.513,0,13.709,5.743,14.43,13.07 C87.256,24.791,93,30.987,93,38.5v40C93,86.495,86.495,93,78.5,93H38.5z" opacity=".35"/><path fill="#f2f2f2" d="M36.5,91c-7.513,0-13.709-5.743-14.43-13.07C14.744,77.209,9,71.013,9,63.5v-40 C9,15.505,15.505,9,23.5,9h40c7.513,0,13.709,5.743,14.43,13.07C85.256,22.791,91,28.987,91,36.5v40C91,84.495,84.495,91,76.5,91 H36.5z"/><path fill="#407845" d="M76.5,84.5h-40c-4.418,0-8-3.582-8-8v-40c0-4.418,3.582-8,8-8h40c4.418,0,8,3.582,8,8v40 C84.5,80.918,80.918,84.5,76.5,84.5z"/><path fill="#96c362" d="M62,70H23.5c-4.418,0-8-3.582-8-8V23.5c0-4.418,3.582-8,8-8H62c4.418,0,8,3.582,8,8V62 C70,66.418,66.418,70,62,70z"/><path fill="none" stroke="#40396e" stroke-linecap="round" stroke-linejoin="round" stroke-miterlimit="10" stroke-width="3" d="M76.5,28.5h-5v-5c0-4.418-3.582-8-8-8h-40c-4.418,0-8,3.582-8,8v40c0,4.418,3.582,8,8,8h5v5c0,4.418,3.582,8,8,8h40 c4.418,0,8-3.582,8-8v-40C84.5,32.082,80.918,28.5,76.5,28.5z"/><g><path fill="#f2f2f2" d="M36.393,56.701c-0.677,0-1.355-0.258-1.871-0.774l-8.845-8.83 c-1.036-1.033-1.037-2.711-0.003-3.746c1.033-1.036,2.711-1.038,3.746-0.003l6.972,6.96l21.087-21.086 c1.035-1.035,2.711-1.035,3.746,0c1.035,1.034,1.035,2.711,0,3.746L38.266,55.925C37.749,56.443,37.071,56.701,36.393,56.701z"/></g></svg>